C:\GBW_MyPrograms\KinderuniversiteitApp\Resultaten\Ellis_v10102025\Jullie_lengte\Jullie_lengte_v11.mot
version=1
nRows=18
nColumns=29
inDegrees=yes
endheader
                time	         pelvis_tilt	           pelvis_tx	           pelvis_ty	       hip_flexion_l	       hip_flexion_r	        knee_angle_l	        knee_angle_r	       ankle_angle_l	       ankle_angle_r	    lumbar_extension	hamstrings_r/activation	bifemsh_r/activation	glut_max_r/activation	iliopsoas_r/activation	rect_fem_r/activation	  vasti_r/activation	gastroc_r/activation	 soleus_r/activation	tib_ant_r/activation	hamstrings_l/activation	bifemsh_l/activation	glut_max_l/activation	iliopsoas_l/activation	rect_fem_l/activation	  vasti_l/activation	gastroc_l/activation	 soleus_l/activation	tib_ant_l/activation	
          1.52194125	         -8.06710016	          1.28318924	          0.67389190	         31.88768924	         -6.97603615	        -14.27813126	        -11.12868255	         11.00764325	          6.01624746	          1.05920839	          0.05000002	          0.11863237	          0.05000013	          0.34301756	          0.05000035	          0.05000003	          0.17408107	          0.24709402	          0.05000000	          0.10143754	          0.05000009	          0.05877194	          0.05000007	          0.06836788	          0.05498383	          0.05000002	          0.05000011	          0.23853046	
          1.53208752	         -8.06553406	          1.29394589	          0.67324580	         31.05019094	         -6.80925387	        -13.62690456	        -13.12005133	         10.91515052	          5.48383529	          1.34559207	          0.05000003	          0.10147285	          0.05382762	          0.32324060	          0.05000007	          0.05000002	          0.14890120	          0.23060271	          0.05000000	          0.09854423	          0.05000006	          0.06742727	          0.05000002	          0.05847885	          0.07359307	          0.05000001	          0.05000000	          0.25457471	
          1.54223380	         -8.05777619	          1.30497867	          0.67252857	         30.12672096	         -6.52356343	        -13.48430759	        -15.36405290	         10.77031074	          4.83266214	          1.67032856	          0.05000015	          0.08679537	          0.08982620	          0.28414435	          0.05000004	          0.05000001	          0.12736346	          0.19724730	          0.05000000	          0.09328623	          0.05470456	          0.05767431	          0.05000005	          0.05002022	          0.06294825	          0.06379245	          0.05690497	          0.24047327	
          1.55238007	         -8.04566549	          1.31616380	          0.67179023	         29.18634343	         -6.13371463	        -13.58376294	        -17.79939421	         10.59369756	          4.01984778	          2.01654592	          0.05000009	          0.07424091	          0.10261614	          0.25645075	          0.05000004	          0.05000002	          0.10894103	          0.16871656	          0.05000000	          0.08175553	          0.06679695	          0.08686899	          0.05000002	          0.05000001	          0.10289083	          0.05456524	          0.05000007	          0.26532006	
          1.56252635	         -8.03305025	          1.32727630	          0.67122002	         28.33724727	         -5.62152064	        -13.81908603	        -20.39608148	         10.39756132	          3.01181504	          2.35220621	          0.05000004	          0.06350238	          0.08777329	          0.24375139	          0.05000012	          0.05918968	          0.09318331	          0.14431263	          0.11649162	          0.07231518	          0.05713518	          0.13653126	          0.05000001	          0.05000005	          0.16907113	          0.05000004	          0.05000003	          0.28476502	
          1.57267262	         -8.02335523	          1.33813654	          0.67094779	         27.58841020	         -4.98707461	        -14.17773596	        -23.12639826	         10.18764349	          1.97880954	          2.65281601	          0.05000003	          0.05431713	          0.07507737	          0.23711517	          0.05000010	          0.05320007	          0.07970485	          0.12343860	          0.23093464	          0.07156329	          0.05000012	          0.17412396	          0.05000001	          0.05000003	          0.21753948	          0.05000002	          0.05000002	          0.29762083	
          1.58281890	         -8.01905225	          1.34861960	          0.67096643	         26.89720622	         -4.25126332	        -14.57125535	        -25.88434228	         10.01285626	          1.30329079	          2.90188269	          0.05001923	          0.09956088	          0.06421784	          0.23681737	          0.05000002	          0.05000000	          0.06817609	          0.10558389	          0.22131793	          0.06811865	          0.05000013	          0.18935738	          0.05000001	          0.05000003	          0.24572173	          0.05000002	          0.05000002	          0.30403381	
          1.59296517	         -8.02103727	          1.35869067	          0.67128597	         26.22414518	         -3.44758482	        -14.92710731	        -28.40170128	          9.89447807	          1.19005587	          3.09596088	          0.05887183	          0.11784876	          0.05492909	          0.22788331	          0.05000003	          0.05000000	          0.06870941	          0.09031176	          0.24946257	          0.06728421	          0.05000024	          0.18315322	          0.05000001	          0.05000003	          0.25560038	          0.05000003	          0.05000003	          0.29981663	
          1.60311145	         -8.02823440	          1.36838142	          0.67192808	         25.53907077	         -2.56190103	        -15.19960901	        -30.68248183	          9.84085191	          1.41740152	          3.24022815	          0.06427750	          0.13048952	          0.05000001	          0.21856062	          0.05000003	          0.05000000	          0.06600393	          0.07724866	          0.24651187	          0.06635634	          0.05000030	          0.16743601	          0.05000001	          0.05000003	          0.25477044	          0.05000005	          0.05000004	          0.28951331	
          1.61325772	         -8.03905652	          1.37774128	          0.67285239	         24.82551622	         -1.59043470	        -15.36817676	        -32.77138246	          9.83948079	          1.82783951	          3.34175144	          0.06621571	          0.15093904	          0.05000001	          0.20824414	          0.05000054	          0.05000000	          0.06637508	          0.06607507	          0.23779931	          0.06550865	          0.05000027	          0.14743578	          0.05000001	          0.05000005	          0.24665142	          0.05000005	          0.05000006	          0.27678860	
          1.62340400	         -8.05193228	          1.38682098	          0.67398544	         24.07820986	         -0.54092221	        -15.43173275	        -34.69186156	          9.86826064	          2.33955607	          3.40733600	          0.07492874	          0.18100802	          0.05000001	          0.19571746	          0.09451673	          0.05000000	          0.06616706	          0.05651767	          0.22580146	          0.06730236	          0.05000027	          0.13584544	          0.05000001	          0.05000004	          0.23387686	          0.05000005	          0.05000005	          0.26444141	
          1.63355027	         -8.06552620	          1.39566895	          0.67524725	         23.29625303	          0.57215782	        -15.39717289	        -36.44208116	          9.91018264	          2.89429546	          3.44329700	          0.07928533	          0.21701640	          0.05000000	          0.18463006	          0.12843390	          0.05000000	          0.06544347	          0.05000001	          0.21626864	          0.06795133	          0.05000022	          0.12755879	          0.05000001	          0.05000005	          0.22024602	          0.05000003	          0.05000004	          0.25202419	
          1.64369655	         -8.07874616	          1.40432359	          0.67656412	         22.48267327	          1.73805886	        -15.27687997	        -38.01646003	          9.95482026	          3.44617830	          3.45430342	          0.07925369	          0.25806750	          0.05000000	          0.17437684	          0.15719965	          0.05000000	          0.05619316	          0.05000000	          0.21096472	          0.06811048	          0.05000017	          0.12190091	          0.05000001	          0.05000006	          0.20708939	          0.05000003	          0.05000003	          0.23828673	
          1.65384282	         -8.09075772	          1.41281293	          0.67787402	         21.64219787	          2.95132049	        -15.08439403	        -39.41928065	          9.99539951	          3.98325166	          3.44348778	          0.07215889	          0.29927221	          0.05000000	          0.16403556	          0.17865955	          0.05000000	          0.05187294	          0.05000000	          0.20846004	          0.06843728	          0.05000014	          0.11899568	          0.05000001	          0.05000006	          0.19493582	          0.05000003	          0.05000004	          0.22280093	
          1.66398910	         -8.10096445	          1.42115712	          0.67912932	         20.77885026	          4.21041163	        -14.83026868	        -40.66156429	         10.02575497	          4.49803013	          3.41294368	          0.06172176	          0.33799347	          0.05000000	          0.15384544	          0.19414295	          0.05000000	          0.05000028	          0.05000000	          0.20819905	          0.06838770	          0.05000012	          0.11755238	          0.05000001	          0.05000007	          0.18404483	          0.05000003	          0.05000004	          0.20523051	
          1.67413537	         -8.10895632	          1.42937000	          0.68029607	         19.89554757	          5.51706351	        -14.52155867	        -41.76138634	         10.03980963	          4.99261100	          3.36396333	          0.05279417	          0.37121406	          0.05000000	          0.14425266	          0.20450402	          0.05000000	          0.05000010	          0.05000000	          0.21003679	          0.06734893	          0.05000011	          0.11550492	          0.05000001	          0.05000007	          0.17463636	          0.05000003	          0.05000007	          0.18511161	
          1.68428165	         -8.11446441	          1.43746120	          0.68135284	         18.99457438	          6.87413249	        -14.16306190	        -42.74103164	         10.03141319	          5.47190847	          3.29735820	          0.05000009	          0.39645100	          0.05000000	          0.13634172	          0.21089847	          0.05000000	          0.05000009	          0.05000000	          0.21182693	          0.06459047	          0.05000010	          0.11072149	          0.05000001	          0.05000009	          0.16603470	          0.05000002	          0.05000003	          0.16178815	
          1.69442792	         -8.11733538	          1.44543714	          0.68228906	         18.07897694	          8.28436079	        -13.76067483	        -43.62674459	          9.99938358	          5.94125722	          3.21360611	          0.05000005	          0.41425494	          0.05000000	          0.12970435	          0.21336852	          0.05000000	          0.05000007	          0.05000000	          0.21395811	          0.06065883	          0.05000009	          0.10397876	          0.05000001	          0.05000015	          0.15861524	          0.05000003	          0.05052537	          0.13838641	
